<svg id="Capa_1" data-name="Capa 1" xmlns="http://www.w3.org/2000/svg" viewBox="0 0 7011.71 3731.48"><defs><style>.cls-1{fill:#fff;stroke:#fff;stroke-miterlimit:10;stroke-width:15px;}</style></defs><path class="cls-1" d="M1830.7,300.84V678.69h-601v528.7h20V698.69H4648.09V2945.13H1249.66v-508.7h-20v528.7h601V3343H5689.42V300.84ZM5669.42,3323H1850.7V2965.13H4668.09V678.69H1850.7V320.84H5669.42Z"/><path class="cls-1" d="M165.13,1435.2c46-6.9,106.24-12.81,182.91-12.81,94.19,0,163.19,19.7,207,55.16,40.52,31.51,64.62,79.77,64.62,138.87,0,60.08-19.72,107.35-57,141.83-50.38,48.26-132.52,72.88-225.62,72.88-28.48,0-54.76-1-76.67-5.91v265.92H165.13Zm95.29,320.09c20.81,4.93,47.1,6.89,78.86,6.89,115,0,185.1-50.23,185.1-141.82,0-87.66-69-130-174.15-130-41.62,0-73.38,3-89.81,6.89Z"/><path class="cls-1" d="M834.34,1480.5c1.1,29.55-23,53.19-61.33,53.19-34,0-58-23.64-58-53.19,0-30.53,25.19-54.17,60.24-54.17C811.34,1426.33,834.34,1450,834.34,1480.5ZM727,2091.14V1614.45h96.38v476.69Z"/><path class="cls-1" d="M1028.2,1614.45l75.57,102.43c19.71,26.59,36.14,51.21,53.67,77.81h3.28c17.53-28.57,35-53.19,52.57-78.8l74.48-101.44h104L1211.1,1844.92l186.2,246.22H1287.77L1210,1983.79c-20.81-27.58-38.34-54.17-57-82.73h-2.19c-17.52,28.56-36.14,54.17-55.85,82.73l-76.67,107.35H912.1l188.38-243.27L920.86,1614.45Z"/><path class="cls-1" d="M1527.63,1868.56c2.19,117.2,85.43,165.46,181.81,165.46,69,0,110.62-10.83,146.77-24.62l16.43,62c-34,13.79-92,29.54-176.34,29.54-163.19,0-260.67-96.52-260.67-240.31s94.19-257.07,248.62-257.07c173,0,219,136.91,219,224.56,0,17.73-2.19,31.52-3.28,40.39Zm282.58-62c1.09-55.16-25.19-140.85-133.62-140.85-97.48,0-140.2,80.77-147.86,140.85Z"/><path class="cls-1" d="M2022.68,1391.86h96.38v699.28h-96.38Z"/><path class="cls-1" d="M2574.68,2091.14l-7.67-60.07h-3.28c-29.58,37.42-86.53,70.91-162.1,70.91-107.34,0-162.1-68-162.1-136.9,0-115.24,113.91-178.27,318.72-177.29v-9.85c0-39.39-12.05-110.31-120.48-110.31-49.29,0-100.76,13.79-138,35.46L2277.86,1646c43.81-25.61,107.34-42.36,174.15-42.36,162.1,0,201.53,99.48,201.53,195v178.26c0,41.37,2.19,81.75,8.76,114.25Zm-14.24-243.27c-105.14-2-224.53,14.78-224.53,107.36,0,56.14,41.62,82.73,90.91,82.73,69,0,112.81-39.4,128.14-79.78,3.29-8.86,5.48-18.71,5.48-27.58Z"/><path class="cls-1" d="M2809.06,1763.17c0-56.14-1.1-104.4-4.38-148.72H2889l3.29,93.56h4.38c24.09-64,82.14-104.4,146.76-104.4a115.25,115.25,0,0,1,27.38,3v81.75a160.28,160.28,0,0,0-32.85-3c-67.91,0-116.1,46.29-129.24,111.3-2.2,11.82-4.39,25.6-4.39,40.38v254.1h-95.28Z"/></svg>